<svg width="5785" height="850" viewBox="0 0 5785 850" fill="none" xmlns="http://www.w3.org/2000/svg">
<path d="M427.361 850C157.014 850 0 681.894 0 427.368C0 164.554 171.181 0 428.542 0C505.278 0 572.569 14.2061 633.958 35.5153V273.468C565.486 240.32 497.014 226.114 440.347 226.114C324.653 226.114 234.931 286.49 234.931 426.184C234.931 565.877 318.75 632.173 432.083 632.173C449.792 632.173 468.681 630.989 488.75 627.437V525.627H347.083V333.844H702.431V793.175C611.528 834.61 510 850 427.361 850Z" fill="#DF3220"/>
<path d="M764.917 838.161V11.8384H1165.13V219.011H995.125V327.925H1133.25V513.788H995.125V630.989H1259.36V838.161H764.917Z" fill="#DF3220"/>
<path d="M1224.92 838.161V11.8384H1501.17L1646.38 512.604H1648.74L1641.65 11.8384H1832.9V838.161H1557.84L1412.63 336.212H1410.27L1417.35 838.161H1224.92Z" fill="#DF3220"/>
<path d="M1903.97 838.161V11.8384H2396.05V219.011H2134.18V327.925H2272.3V513.788H2134.18V630.989H2306.54V838.161H1903.97Z" fill="#DF3220"/>
<path d="M2363.97 838.161V11.8384H2689.8C2837.37 11.8384 2927.1 92.3398 2927.1 232.033C2927.1 333.844 2876.33 397.772 2804.32 423.816V426.184C2882.23 445.125 2923.55 505.501 2923.55 607.312V838.161H2690.98V602.577C2690.98 541.017 2672.1 518.524 2626.05 518.524H2594.18V838.161H2363.97ZM2594.18 326.741H2634.32C2676.82 326.741 2700.43 299.513 2700.43 258.078C2700.43 216.643 2676.82 190.599 2634.32 190.599H2594.18V326.741Z" fill="#DF3220"/>
<path d="M2939.42 838.161L3090.53 11.8384H3424.63L3580.46 838.161H3351.43L3338.45 744.638H3177.89L3163.72 838.161H2939.42ZM3205.04 557.59H3311.29L3259.35 203.621H3256.99L3205.04 557.59Z" fill="#DF3220"/>
<path d="M3630.35 838.161V227.298H3534.72V11.8384H3956.18V227.298H3860.56V838.161H3630.35Z" fill="#DF3220"/>
<path d="M4002.22 838.161V11.8384H4232.43V838.161H4002.22Z" fill="#DF3220"/>
<path d="M4703.33 850C4448.33 850 4279.51 680.71 4279.51 425C4279.51 169.29 4448.33 0 4703.33 0C4959.51 0 5129.51 169.29 5129.51 425C5129.51 679.526 4959.51 850 4703.33 850ZM4530.97 425C4530.97 535.097 4601.81 613.231 4704.51 613.231C4807.22 613.231 4879.24 536.281 4879.24 425C4879.24 313.719 4807.22 236.769 4704.51 236.769C4601.81 236.769 4530.97 313.719 4530.97 425Z" fill="#DF3220"/>
<path d="M5177.01 838.161V11.8384H5453.26L5598.47 512.604H5600.83L5593.75 11.8384H5785V838.161H5509.93L5364.72 336.212H5362.36L5369.44 838.161H5177.01Z" fill="#DF3220"/>
</svg>
